<svg xmlns="http://www.w3.org/2000/svg" viewBox="0 0 1000 1000"><defs><style>.a{fill:#00c7fe;}.b{fill:#001d26;}.c{fill:#00c7fd;}</style></defs><path class="a" d="M1459.91,601q0,247.71.09,495.41c0,3.75-.84,4.59-4.59,4.59q-495.4-.15-990.82,0c-3.75,0-4.59-.84-4.59-4.59q.15-495.41,0-990.82c0-3.75.84-4.59,4.59-4.59q495.41.15,990.82,0c3.75,0,4.59.84,4.59,4.59Q1459.84,353.3,1459.91,601ZM960.53,1058.13q225.2,0,450.37,0c7.55,0,6.62,1.17,6.62-6.57q0-450.61.12-901.23c0-5-1-6.58-6.39-6.58q-450.62.22-901.23,0c-5.22,0-6.44,1.32-6.44,6.47q.19,450.61.12,901.23c0,6.69,0,6.69,6.47,6.69Z" transform="translate(-460 -101)"/><path class="b" d="M960.53,1058.13H510.17c-6.47,0-6.47,0-6.47-6.69q0-450.62-.12-901.23c0-5.15,1.22-6.47,6.44-6.47q450.62.21,901.23,0c5.37,0,6.39,1.55,6.39,6.58q-.18,450.61-.12,901.23c0,7.74.93,6.57-6.62,6.57Q1185.72,1058.16,960.53,1058.13ZM819.16,328.92c-14.17,0-28.33.14-42.49-.08-4.73-.07-6.34,1.51-6.49,6.32-.37,11.77-1.19,23.51-4.47,35q-49.32,172.08-98.48,344.2-10.93,38.25-21.76,76.53c-2,7.07-1,8.87,5.21,8.91,19.83.11,39.66,0,59.49.07,5.06,0,7.61-2,8.93-7.11,10.37-40.1,21.1-80.1,31.44-120.21,1.11-4.31,2.86-5.39,7-5.37q62.49.2,125,0c4.44,0,6.33,1.2,7.51,5.58,10.81,40,22,79.89,32.72,119.89,1.47,5.45,4.4,7.26,9.51,7.25,22.16-.05,44.32,0,66.49-.06,5.91,0,6.87-1.55,5.24-7.48-.22-.8-.41-1.61-.65-2.41q-36.61-124.26-73.26-248.52-30.32-102.83-60.53-205.66c-1.43-4.88-3.49-7.06-8.91-6.92C846.83,329.17,833,328.92,819.16,328.92Zm225.67,421.29c0,8.5.66,17.06-.18,25.48s2.44,13.23,10.1,15.73c.63.21,1.22.54,1.83.8,18.37,7.88,37.67,11.61,57.51,13.11,21,1.58,41.91,1.51,62.5-3.54,24.73-6.07,46.34-17.43,62.19-38,12.36-16.09,18.06-34.6,19.35-54.63,1.89-29.49-5.68-55.64-27.09-76.94-15.06-15-32.93-25.86-51.65-35.49-16.13-8.3-32.45-16.3-46.85-27.52-6.36-4.95-12.1-10.54-14.3-18.7-4-14.9,4-29.18,19.74-35.17,15-5.68,30.38-4.73,45.79-2.74,18.64,2.4,36.38,7.61,52.67,17.3,3.88,2.3,6.68.71,6.7-3.75.1-19.82,0-39.64,0-59.47,0-4-2-6.6-5.57-8a70.13,70.13,0,0,0-7.5-2.74c-32-8.88-64.47-11.57-97.21-5.8-49.3,8.68-84.11,43-87.6,90-1.53,20.51,1.55,40.17,12.13,58.16,9.69,16.48,23.91,28.39,39.62,38.77,15,9.93,31.67,17,47.25,25.93,10.84,6.23,21.49,12.75,30.18,22,16.33,17.27,11,42.07-10.92,51a61.75,61.75,0,0,1-21.41,4.3c-32.65,1.17-62.91-6.74-90.68-24-4.9-3-6.52-2.17-6.57,3.58C1044.78,729.89,1044.84,740.05,1044.83,750.21Z" transform="translate(-460 -101)"/><path class="c" d="M819.16,328.92c13.83,0,27.67.25,41.49-.13,5.42-.14,7.48,2,8.91,6.92q30.12,102.87,60.53,205.66,36.63,124.26,73.26,248.52c.24.8.43,1.61.65,2.41,1.63,5.93.67,7.46-5.24,7.48-22.17.08-44.33,0-66.49.06-5.11,0-8-1.8-9.51-7.25-10.76-40-21.91-79.9-32.72-119.89-1.18-4.38-3.07-5.6-7.51-5.58q-62.47.27-125,0c-4.16,0-5.91,1.06-7,5.37-10.34,40.11-21.07,80.11-31.44,120.21-1.32,5.12-3.87,7.14-8.93,7.11-19.83-.08-39.66,0-59.49-.07-6.2,0-7.21-1.84-5.21-8.91q10.81-38.28,21.76-76.53,49.21-172.11,98.48-344.2c3.28-11.46,4.1-23.2,4.47-35,.15-4.81,1.76-6.39,6.49-6.32C790.83,329.06,805,328.92,819.16,328.92Zm1,69.5-1.16,0c-1.24,6.11-2.44,12.22-3.75,18.32-12.62,59.15-28.66,117.45-44.3,175.84-1.16,4.32-1,5.63,4,5.6,29.82-.21,59.65-.09,89.48-.1,6.42,0,6.44,0,4.84-6.24-14.63-56.78-30-113.37-43.75-170.38C823.67,413.8,821.93,406.1,820.15,398.42Z" transform="translate(-460 -101)"/><path class="c" d="M1044.83,750.21c0-10.16,0-20.32,0-30.48.05-5.75,1.67-6.63,6.57-3.58,27.77,17.3,58,25.21,90.68,24a61.75,61.75,0,0,0,21.41-4.3c22-9,27.25-33.77,10.92-51-8.69-9.2-19.34-15.72-30.18-22-15.58-8.95-32.2-16-47.25-25.93-15.71-10.38-29.93-22.29-39.62-38.77-10.58-18-13.66-37.65-12.13-58.16,3.49-47,38.3-81.3,87.6-90,32.74-5.77,65.23-3.08,97.21,5.8a70.13,70.13,0,0,1,7.5,2.74c3.59,1.44,5.57,4.08,5.57,8,0,19.83.11,39.65,0,59.47,0,4.46-2.82,6-6.7,3.75-16.29-9.69-34-14.9-52.67-17.3-15.41-2-30.84-2.94-45.79,2.74-15.77,6-23.75,20.27-19.74,35.17,2.2,8.16,7.94,13.75,14.3,18.7,14.4,11.22,30.72,19.22,46.85,27.52,18.72,9.63,36.59,20.51,51.65,35.49,21.41,21.3,29,47.45,27.09,76.94-1.29,20-7,38.54-19.35,54.63-15.85,20.61-37.46,32-62.19,38-20.59,5.05-41.49,5.12-62.5,3.54-19.84-1.5-39.14-5.23-57.51-13.11-.61-.26-1.2-.59-1.83-.8-7.66-2.5-11-7.26-10.1-15.73S1044.83,758.71,1044.83,750.21Z" transform="translate(-460 -101)"/><path class="b" d="M820.15,398.42c1.78,7.68,3.52,15.38,5.36,23.06,13.72,57,29.12,113.6,43.75,170.38,1.6,6.2,1.58,6.24-4.84,6.24-29.83,0-59.66-.11-89.48.1-5,0-5.16-1.28-4-5.6,15.64-58.39,31.68-116.69,44.3-175.84,1.31-6.1,2.51-12.21,3.75-18.32Z" transform="translate(-460 -101)"/></svg>