<svg xmlns="http://www.w3.org/2000/svg" width="58.78" height="42" viewBox="0 0 1057.37 755.52"><path d="M154.83,149.43A391.32,391.32,0,0,1,91.55,314.69l26,3.39c-5.34-14.15-3.82-28.45-.88-42.95,3.1-15.33,6.72-30.61,10.32-45.83s7.61-30.11,12.66-44.78a217,217,0,0,1,17.48-39.29q2.76-4.81,5.77-9.48,1.63-2.52,3.34-5c.4-.57,2.91-3.91,1.91-2.69a42.88,42.88,0,0,1,3.72-4,16.84,16.84,0,0,1,1.73-1.54c-.31.22-1.29,1,.1.14s.23-.35-.14-.17a14.08,14.08,0,0,1,3.18-.93c-2.1.38,3.1.2,2.21.08A37.92,37.92,0,0,1,186,124a92.31,92.31,0,0,1,9.56,5.36c1.31.85,2.59,1.74,3.87,2.64,2.61,1.82,1,.7.43.26.61.48,1.21,1,1.81,1.47q4.2,3.5,8.05,7.39c2.41,2.42,4.71,4.95,6.93,7.55,1,1.21,2,2.42,3.06,3.65.68.81,1.35,1.63,2,2.46.87,1.06,1.27,1.62.19.2,4.33,5.72,8.33,11.66,12.11,17.75a396.67,396.67,0,0,1,22,40.92c2,4.32,4.06,8.64,6,13,.37.82.73,1.64,1.08,2.45.13.3,1.54,3.54.82,1.86s.38.92.43,1c.57,1.38,1.13,2.76,1.69,4.14q5,12.45,9.17,25.2c2.79,8.5,5.52,17,8.27,25.54,1.36,4.24,2.4,8.64,3.9,12.83,2.43,6.78,7.91,12.59,15,14.41L295,308.33c.94,2.05,2,4,3.09,6,2.16,4.1,7.56,6,11.91,4.85,4.79-1.32,7.25-5.5,7.74-10.17.25-2.34.52-4.67.58-7l-3.66,8.85c9.93-8,6.5-21.29,4.42-32a215.12,215.12,0,0,0-6.7-26,459,459,0,0,0-20.33-51,362.47,362.47,0,0,0-25.62-45.35c-8.93-13.56-18.82-27-31-37.82C223,107.57,208,97.5,191.6,93.37c-10.39-2.62-21.33-2.59-31.07,2.27-8.19,4.08-14.07,11.35-19.23,18.67-19.61,27.84-31.46,60.85-40.13,93.53-4.9,18.45-9,37.11-12.48,55.86-3.84,20.35-6.56,42.19,1.43,61.94,2.17,5.34,5.71,9.45,11.81,10.17A14.46,14.46,0,0,0,116.08,329a425.4,425.4,0,0,0,65.33-172.28c1.05-7.36-1.82-14.8-9.63-16.95-6.45-1.77-15.92,2.21-16.95,9.63Z" transform="translate(-84.96 -91.63)" fill="#51e6fe"/><path d="M182.43,276c30.48-3.29,63.88-11.19,89.21-29.26,7.2-5.14,11.35-15,6.08-23.19s-14.66-10.29-23.18-6.07c-6.3,3.11-12.49,6.39-18.85,9.37-2.91,1.35-5.79,2.75-8.71,4.06-1.1.48-1.07.47.1,0l-2.44,1q-2.44,1-4.92,1.89a167.86,167.86,0,0,1-19.27,5.87q-5.12,1.22-10.28,2.18c-1.44.26-2.88.51-4.32.74-.86.14-1.72.28-2.59.4,1.49-.17,1.21-.14-.83.11-8.51,1.07-16.89,6.81-16.45,16.46.36,8.12,7.29,17.44,16.45,16.45Z" transform="translate(-84.96 -91.63)" fill="#51e6fe"/><path d="M354.4,144.71c3.68,7.51,4.26,16.19,4.24,25.82,0,11-.6,21.95-1.33,32.88-1.51,22.87-5.06,45.72-5.92,68.6-.19,5.12-.67,10.33-.43,15.44.45,9.63,6.62,20,17.56,19.55,9.76-.43,16.12-8.3,16.2-17.77A147.64,147.64,0,0,1,386,274c2.54-22.64,3.07-45.82,3.46-68.59.43-24.87,2.34-53-9.32-75.72-3.67-7.16-13.72-9.25-20.4-5.34-7.37,4.31-8.9,13.14-5.34,20.39Z" transform="translate(-84.96 -91.63)" fill="#51e6fe"/><path d="M438.72,261.26A120.38,120.38,0,0,0,497.6,217c3.56-5,7-10.23,8.49-16.21,2.45-9.86-.3-21.51-9.57-26.94-14.63-8.56-31,1.83-39.54,13.75-13.28,18.47-16.21,43.89-13,65.87A83.06,83.06,0,0,0,455.54,285c6.83,11.07,17.65,24.68,30.8,28.16,15.26,4,33.3-2.84,46.62-10.05a70.53,70.53,0,0,0,17.81-13.93,41.65,41.65,0,0,0,4.25-5.32,20.41,20.41,0,0,0,2.79-10.34q0-2.81-.5,1.27c-.46-.41.72-4.89.77-5.73a17.64,17.64,0,0,0-.93-7c-1.42-3.86-4.43-8.3-8.94-8.94-3.82-.55-5.68-.79-9.51-.1-.86.2-1.73.39-2.6.55,2.76-.26,3.18-.43,1.24-.52-6.85.11-11.29,3.83-16.65,7.31-3.05,2-6.24,3.86-9.41,5.65-1.83,1-3.71,1.92-5.59,2.85-3.92,1.95,3.85-1.16-.7.23-2.31.71-8.27,3.86-10.63,3q4.45-.45.81-.24c-2.45-.16-2.15-.09.89.19-2.18-.7-2-.57.66.37-.91-.5-1.79-1-2.65-1.63l1.69,1.3c-.74-.63-1.47-1.27-2.18-1.93q-2.13-1.95-4.08-4.1a20.84,20.84,0,0,1-2.8-3.28c2.52,4.37-.67-1.13-1.22-2A73.26,73.26,0,0,1,480.6,252c-.41-.88-.79-1.75-1.16-2.64.88,2.14.93,2.24.16.33-.5-1.37-1-2.73-1.47-4.12a75.92,75.92,0,0,1-2.59-10.5c-.14-.84-.45-5.77-.39-2.08q0-2.9.13-5.79c0-.33.49-5.08,0-1.54a55.33,55.33,0,0,1,1.07-5.69,58.3,58.3,0,0,1,3-9.67c-1,2.4,1.59-2.65,1.89-3.15,2-3.25-1.42.94,1.28-1.68.69-.75,1.41-1.45,2.16-2.12-1.24.9-1.1.83.44-.2q2.7-1.44-.07-.09a10.94,10.94,0,0,1-3.61,0l-7.2-4.19c-2.31-2-2.39-6-2.1-8.89q1.35-3.06-.11-.41l-.68,1.23c-1.61,2.71-3.39,5.28-5.15,7.89-2.32,3.47,1.49-1.6-1,1.32-1,1.2-2,2.41-3.05,3.59-2.26,2.54-4.65,5-7.14,7.29-2.31,2.14-4.72,4.13-7.18,6.1-.61.49-1.22,1-1.82,1.48q2.06-1.56.53-.42c-1.29.9-2.55,1.85-3.86,2.73a107.82,107.82,0,0,1-17.16,9.4c-7.73,3.39-9.92,14.24-7,21.25,3.09,7.31,12,12.69,20.07,9.85Z" transform="translate(-84.96 -91.63)" fill="#51e6fe"/><path d="M566.1,222a10.11,10.11,0,0,1-6.05-2.38l.93,1c.88,1.18,2.06,2.14,3,3.24,2.06,2.32,3.9,4.86,5.85,7.27q6.1,7.51,12.61,14.67a237.21,237.21,0,0,0,30.95,28.49,168.69,168.69,0,0,0,32.3,19.8,152,152,0,0,0,20.18,7.93c7.38,2.17,15.42,2.88,23.07,3.43,9.47.67,17.6-7.8,18.78-16.58,1.21-9-4.38-18.82-13.7-21-6.41-1.49-12.54-3.67-18.81-5.62-3-.92-5.94-2-8.85-3.11-.73-.28-1.46-.57-2.18-.87,2.2.93,2.61,1.1,1.25.49s-2.86-1.3-4.27-2a159,159,0,0,1-17.14-9.73q-4-2.59-7.86-5.41c-1.3-.94-2.57-1.9-3.85-2.86,5.06,3.8-6.31-5-1-.81a287.14,287.14,0,0,1-28.57-26.12c-4.35-4.55-8.32-9.49-12.74-14a29.22,29.22,0,0,0-28.27-8.24c-8,1.91-12.84,10.27-11.79,18.06,1.11,8.25,7.89,13.91,16.16,14.26Z" transform="translate(-84.96 -91.63)" fill="#51e6fe"/><path d="M653.32,190.22c-.43-2.28,0,1.24,0,1.76-.09,1.19,0,1.19.2,0l-.33,1.77c-.33,1.49-.73,3-1.2,4.4-.15.46-1.47,3.74-.73,2.07-2.53,5.67-6,11-9.16,16.4-6.41,11-13.16,21.76-19.68,32.68q-9.54,16-19.59,31.61c-3.62,5.63-7.83,11.21-10.44,17.39-1.79,4.25-1.11,7.33-2,10.17a32.18,32.18,0,0,0-1.83,10.59c.21,5.95,6.08,11.47,12.28,9.36,6-2,10.45-6.18,15.3-10l-6.46,3.77a23.17,23.17,0,0,0,12.94-8.69c1.94-2.53,3.84-5.1,5.63-7.74,3.56-5.26,7-10.64,10.38-16,6.83-10.72,13.63-21.49,19.83-32.59,6.05-10.81,12-21.7,17.63-32.73,7.19-14,12.11-27.24,9.72-43.16-1.32-8.76-12.81-14.36-20.76-11.78-9.27,3-13.56,11.44-11.79,20.75Z" transform="translate(-84.96 -91.63)" fill="#51e6fe"/><path d="M252.91,356.36a393.91,393.91,0,0,0-64.7,58.69A351.76,351.76,0,0,0,161,450q-6,8.94-11.49,18.22a82.32,82.32,0,0,0-5,8.64c-1.46,3.35.82-.62-1,2.06s-4.05,4.75-5.61,7.52a18,18,0,0,0,0,17.9c3.45,5.89,8.89,8,15.32,8.79,17.86,2.13,35.86-2,53-6.62,8.05-2.18,16.11-4.44,24.31-6,1.88-.36,3.77-.67,5.66-1-3.91.62,2.46-.18,3.28-.24a87.21,87.21,0,0,1,12.93.21c-.34,0-2.8-.56-.75-.07,1,.25,2.13.4,3.18.64,1.77.41,3.49,1,5.21,1.52-3.18-1,1,.49,2,1.12.46.28,3,2.17,1.33.78s1.55,1.67,1.54,1.67c-2.61-2.75,1,2.64.27.69-.78-2.16.05.86.24,1.35.71,1.77-.08-.72-.07-1.14,0,1.07-.5,6.75.27,2.67a50,50,0,0,1-1.5,6c-.33,1-.7,2-1.08,3,.14-.35,1.19-2.31.19-.58s-2,3.88-3.08,5.75q-1.44,2.45-3,4.78c-.6.88-1.23,1.74-1.85,2.6-.8,1.1-1.24,1.61-.15.23a245.86,245.86,0,0,1-16.76,19.15,244.81,244.81,0,0,1-18.07,16.77c-1.47,1.23-3,2.43-4.45,3.64-2.71,2.2-.82.67-.23.22-.87.67-1.75,1.32-2.62,2q-5,3.68-10.07,7.1a241.08,241.08,0,0,1-21.88,13q-5.08,2.69-10.31,5.11c-1,.44-2,1-3,1.36.54-.19,3.81-1.3.69-.39-1.3.38-3.89,1.74-5.16,1.35.08,0,4.46,0,1-.36,0,0,3.75.78,1.82.24s2.07,1,2.56,1.39a14.2,14.2,0,0,1,3.51,5l.21,1.9,0-1.49c.48.58-1.15,3.76.24.25.37-.94.66-1.94,1-2.88-.65,1.74-.34.75.22-.37a96.67,96.67,0,0,1,6.2-10.89c1.08-1.62,2.21-3.22,3.41-4.76-1.75,2.26,2-2.31,2.56-3,11.72-13.57,25.47-25.51,38.88-37.36q23.55-20.81,47.72-41c4-3.36,8.06-6.65,12.11-10s7.45-7.22,11.38-10.64,7.85-6.81,11.81-10.16a68.25,68.25,0,0,0,5.6-4.7c2.22-2.33,3.57-5.43,5.05-8.23,2.67-5-.52-13.19-7.16-12.49-5.95.63-10.82,1.61-16.09,4.59-4.82,2.73-9.64,5.47-14.42,8.27-4.5,2.64-9.33,4.81-13.72,7.59-4.67,2.95-9.14,6.3-13.64,9.5a631.42,631.42,0,0,0-52.11,41.14c-15.11,13.3-30.84,26.72-43.51,42.46-13.38,16.62-34.13,47.7-11.12,65.48,18.61,14.38,42.5.2,59.7-9.68a264.72,264.72,0,0,0,48.49-36c14.07-13.14,28.63-28.51,37.71-45.6,5.17-9.72,9.12-20.92,8.4-32.09-.85-13.2-7.23-24.33-17.81-32.13-19.73-14.54-47.25-11.94-69.71-6.85-10.37,2.35-20.58,5.32-30.93,7.75-2.7.64-5.39,1.28-8.12,1.81-1.08.21-2.16.39-3.25.59-5.26,1,3.6-.25-1.72.27a88.75,88.75,0,0,1-16.38.17l15.31,26.69a59,59,0,0,0,3.06-7.24c.24-.65,2.18-4.22.86-2,1.84-3.09,3.79-6.12,5.75-9.13q5.44-8.36,11.32-16.41c2.13-2.91,4.32-5.76,6.5-8.63,1-1.32,2-2.66,3-4-1.82,2.35.94-1.18,1.33-1.67q6.19-7.79,12.8-15.24a371.71,371.71,0,0,1,28-28.32q7.37-6.71,15.08-13,2.25-1.85,4.53-3.64l2-1.54c-1.23.95-1.35,1-.35.28,2.89-2.14,5.75-4.3,8.67-6.4,7.63-5.49,12.07-15.93,6.46-24.63-4.84-7.51-16.49-12.4-24.63-6.46Z" transform="translate(-84.96 -91.63)" fill="#51e6fe"/><path d="M386.63,493.63c13.12-14.85,2.16-37.72-16.61-40.46-19.73-2.87-33.5,13.81-43.49,28.34a147.69,147.69,0,0,0-21.15,47c-4.05,16-6.64,34-1.81,50.08,5.55,18.53,21.23,30.19,40.52,30.73,16.68.47,33.14-8.33,46.18-17.92,27.28-20.06,48.43-46.56,64-76.54A385.58,385.58,0,0,0,478,456.94c6.42-19.59,10.35-39.92,15.34-59.89l-26.62-7.34c-8.2,30.56-16.53,61.12-24.65,91.72-7.56,28.47-19.91,59.35-10.31,88.79,4.55,14,21.05,18.32,31.92,8.43,12.95-11.79,24.23-25.8,36.16-38.65.53-.59,1.07-1.16,1.62-1.74q5.25-4.69-8.34,2.81l-6.31-1.5q-3.18-2.57-.77-.23c-3.4-4.25.44.65.88,1.27,1.26,1.77,2.5,3.57,3.71,5.38,2.27,3.36,4.36,6.82,6.56,10.22,3.88,6,8,8.87,14.16,11.82C523,573.56,535,566.81,535.93,554a55.32,55.32,0,0,0,.27-6.43c-.24-5.55-2.4-9.77-5.29-14.24s-5.89-8.82-9-13.09c-4.17-5.69-8.09-11.12-14.12-15a26.74,26.74,0,0,0-22.59-3c-11.5,4-19.11,15.68-26.88,24.45-8.38,9.46-17.05,18.69-24.58,28.85h33c-.26-.47-2.28-5.16-1-1.6-.57-1.58-1.11-3.15-1.55-4.77s-.8-3.22-1.09-4.85c.45,2.59.07.13,0-1.16a97.76,97.76,0,0,1,.83-19.64c-.29,2.16.19-1,.3-1.75.28-1.72.56-3.44.92-5.15.68-3.25,1.52-6.48,2.29-9.71l5.3-22.15c7-29.2,13.78-58.47,20.69-87.68,1.72-7.25-2.27-15-9.64-17a14,14,0,0,0-17,9.64c-8.23,28.2-18.59,59-29.85,84.31a289.92,289.92,0,0,1-19.22,36.45c-3.48,5.53-7.21,10.87-11.07,16.14-3.15,4.3,2.09-2.48-1.27,1.64-1,1.26-2,2.53-3.07,3.78-2.06,2.51-4.16,5-6.33,7.39a185.4,185.4,0,0,1-13.72,13.75c-2.41,2.16-4.89,4.23-7.4,6.28-4.07,3.34,2.72-1.85-1.58,1.21-1.76,1.25-3.5,2.53-5.29,3.74-2.1,1.42-4.22,2.79-6.42,4.05q-1.94,1.09-3.92,2.08c-.54.26-5.06,2.07-1.27.64a62.73,62.73,0,0,1-8.46,2.63c-.79.18-5.52.79-1,.3a49.14,49.14,0,0,1-5.56.39c-1.19,0-4.84-.94-.81.11-1.3-.34-2.57-.63-3.85-1.06,3.72,1.26-.05-.27-.81-.73.65.39,2.12,2.15,0-.08-3-3.1-3.46-5.41-3.74-9.9a72.4,72.4,0,0,1,.06-9c.1-1.61.27-3.2.42-4.81.5-5.3-.56,2.7.34-2.56a146.28,146.28,0,0,1,4.66-19.58,98.74,98.74,0,0,1,8.29-19.53q2.78-5.17,6-10.09c.77-1.17,1.56-2.32,2.36-3.47.41-.58,2.77-3.78,2.19-3a43.92,43.92,0,0,1,7.45-7.84c-2,1.54,2-1.2,2-1.16,1.55-.81,1.74-.92.55-.33,1.71-.4,1.9-.49.57-.28l1.17,0a3.65,3.65,0,0,1-2.61-.65q2,1.23.16-.19a15.39,15.39,0,0,1,1.66,1.67c-1.21.68-1.06-4.38-.86-1-.09-1.43,1.1-4.88-.18-3.09-8.53,11.9,10.63,26.65,20.32,15.68Z" transform="translate(-84.96 -91.63)" fill="#51e6fe"/><path d="M550.58,504l-10.9,39.41c-2.9,10.5,7.66,23.25,19,19,7.91-3,13.41-7.49,18.44-14.24,3.41-4.58,6-9.7,9-14.55q2.61-4.21,5.44-8.29c1-1.48,2.09-2.94,3.15-4.4a24.36,24.36,0,0,1,1.88-2.44c1.73-2.14,3.45-4.33,5.36-6.33a28.61,28.61,0,0,1,2.09-2l-1.05.82c-1.88.46-3.09,1-5.1.46l-1.86-.84c1.34.85,1.42.88.24.07-2.37-2.74,3,3,.48.54-1.82-1.75.63,1,1,1.61a39,39,0,0,1,2,3.81c-.9-2.25-1.06-2.62-.46-1.12.34.84.68,1.69,1,2.54.55,1.41,1.08,2.83,1.61,4.25q1.75,4.71,3.33,9.46c2.11,6.36,4.2,12.74,6.05,19.18,2.65,9.3,4.43,18,11.5,25.25,9.91,10.15,26.82,4.92,30.79-8.13,3.13-10.3-.22-20-3.51-29.71-2.81-8.29-6.07-16.39-9.67-24.37-6.44-14.23-14.09-31.4-30.73-35.68-19.31-4.95-31.92,11.14-41.69,24.94A191.85,191.85,0,0,0,555.62,523c-1.37,2.55-2.81,5-4.26,7.53-1,1.49-1.07,1.59-.07.31l-.92,1c-1.32,1.2-1.3,1.31,0,.31-1.55.86-1.54,1,0,.38l18.95,18.94,9.67-39.75c1.88-7.74-2.46-16-10.31-18.16A15,15,0,0,0,550.58,504Z" transform="translate(-84.96 -91.63)" fill="#51e6fe"/><path d="M662.4,502.84c-5.54,10.11-1.49,22,8.31,27.7,12.56,7.35,24.49.82,34.52-7.13,13.23-10.5,22.8-27.14,26.19-43.55,1.4-6.75-.43-13.33-6-17.65-5.2-4-12.89-4.86-18.65-1.31-11.67,7.19-17.08,19.67-21.51,32.07a174.77,174.77,0,0,0-8.83,39.64c-1.64,14.76,1.07,28.71,11.09,40.13,12.32,14,31.46,14.5,47.46,7.17,6.4-2.93,11.82-7.72,17.18-12.22a103,103,0,0,0,13.79-13.91,47.16,47.16,0,0,0,9.5-20.32c1.78-9.21-3.18-17.7-13.24-17.39a22.35,22.35,0,0,0-5.13.84l-3.52,1.49c1.17-.47.92-.36-.74.31-3.52,1.41-7.19,2.52-10.41,4.56-4.95,3.14-9.59,6.86-14.43,10.19-2.42,1.66-4.87,3.3-7.39,4.81-1.85,1.11-5.34,4-7.52,4.17l2.06-.87a22.43,22.43,0,0,1-3.21.88c3.5.77,2.56-.41.74-.46,7.54.2.4.56.22-.61,2.63,1.21,3.24,1.44,1.83.71a15.92,15.92,0,0,1-1.82-1.09c.35-.12,3.6,2.35.31,0-1-1.06-.71-.65.76,1.21a25.63,25.63,0,0,1-1.55-2.43c-1.57-2.43-.41-.72-.12,0a31.56,31.56,0,0,1-1.73-6.63c.13,1,0,2.76.11-.54.07-2,.17-4.07.36-6.1.05-.56.47-4.21.15-1.77.24-1.82.57-3.62.93-5.42a145.92,145.92,0,0,1,5.93-21.1c.41-1.14.85-2.28,1.28-3.42q1-2.6,0,0c.4-.86.83-1.71,1.29-2.54a23.05,23.05,0,0,0,1.47-2.4,4.08,4.08,0,0,1-2,1.94q2.45-1.38-.37-.2l-20.65-20.65c-.44,1.16-.88,2-.12.38-.45,1-.89,1.93-1.37,2.87-1.09,2.14-2.21,4.28-3.37,6.37q-1.56,2.82-3.36,5.49c-.17.26-2.05,3-.94,1.44s-1.66,2-1.62,1.94c-2.82,3.24-6,6.1-9.12,9-1,.89-1.34,1.6-.24.31q-2.48,1.35-.79.71c1.34-.45.84-.22-1.48.69-4.08,1.72-.38.41,1.56.37,2.61.18,3.23.12,1.85-.2q-4.83-1.45,5.48,5.53c-3.06-10.1-17.75-12.84-23.13-3Z" transform="translate(-84.96 -91.63)" fill="#51e6fe"/><path d="M774.86,493.41q1.39,16.83,3.59,33.59c1.54,11.72,2.79,23.76,5.51,35.27,1.78,7.56,10.4,12.05,17.68,10,8.3-2.27,11.12-10,10.05-17.68-2.84-20.46-6.92-40.62-9-61.22-.75-7.48-5.86-13.92-13.92-13.92-7,0-14.55,6.38-13.92,13.92Z" transform="translate(-84.96 -91.63)" fill="#51e6fe"/><path d="M812.41,396.35a13.12,13.12,0,0,0,4.94-4.51,17.68,17.68,0,0,0,1.39-1.82,15.26,15.26,0,0,0,.88-2.08c.3-.69.6-1.38.88-2.08a1.16,1.16,0,0,0,0-.18l.61-4.52s0-.06,0-.09a19.57,19.57,0,0,0-.65-4.82,16.05,16.05,0,0,0-.9-2.17c-.1-.25-.56-1.49-.92-2.16a16,16,0,0,0-2.87-3.7l-3.48-2.69-.08,0a.2.2,0,0,0-.08,0l-4.11-1.74a13.39,13.39,0,0,0-4.9-.66,17.19,17.19,0,0,0-8.73,2.37,17.38,17.38,0,0,0-6.2,6.2l-1.74,4.13a17.47,17.47,0,0,0,0,9.19,19.29,19.29,0,0,0,7.94,10.33,17.33,17.33,0,0,0,17.46,0l.05,0L807.82,397l.19-.05-4.59.62h.13l-4.58-.62.18,0L795,395.24a1.07,1.07,0,0,1,.21.13l-3.46-2.68a1,1,0,0,1,.17.18l-2.67-3.46a1.59,1.59,0,0,1,.13.22l-1.72-4.07a1.05,1.05,0,0,1,.06.24l-.6-4.51v.18l.6-4.51a1,1,0,0,1,0,.18l1.7-4a.6.6,0,0,1-.06.11l2.64-3.42,0,0A18.74,18.74,0,0,0,787,381.77l.6,4.49a12.69,12.69,0,0,0,3,5.74,8.46,8.46,0,0,0,3,3,12.79,12.79,0,0,0,5.74,3l4.48.6a16.86,16.86,0,0,0,8.52-2.3Z" transform="translate(-84.96 -91.63)" fill="#51e6fe"/><path d="M914.3,503.26c10.59-15.83-2.11-36-18.77-40.31-17.92-4.6-33.25,9.65-40.44,24.59-7.81,16.22-13.37,32.34-15.22,50.34-1.58,15.39-1.09,32.89,11.11,44.27,7.38,6.88,18.95,7.9,28.3,5,8.72-2.74,16.17-9.44,21.74-16.5a255.91,255.91,0,0,0,26.35-41.75,279.3,279.3,0,0,0,18.31-46.31c4.79-15.82,7.38-32.34,9.43-48.71a285.91,285.91,0,0,0,1.75-52.4c-1.15-19.44-2.77-40.48-13.41-57.31-2.32-3.67-7-7.29-11.68-6.7-9.76,1.24-17.18,6.09-21.36,15.21-3.84,8.36-6,17.43-8.37,26.29q-7.54,28.5-12.37,57.63a635.39,635.39,0,0,0-8.62,119c.25,10.7-.2,22.64,5.33,32.22,5.62,9.76,19.52,14.77,29.15,7.55,5.25-3.94,5.64-13.42-2-15.17-1.9-.43-1.76-.87-2.88-2.54-1.75-2.63-2.78-4.34-3.25-7.63-.93-6.71-.65-14.89-.75-22q-.36-24.73,1.24-49.43A609.25,609.25,0,0,1,922,381.2q3.07-13.44,6.74-26.75c.56-2,1.1-4.09,1.73-6.11.19-.62.35-1.27.6-1.87.15-.36,1-1.71.42-.74a25,25,0,0,1,1.42-2.25c-.86,1.22.22-.34.52-.34-.09,0-1.07.68-1.2.74-.78.39-3,.27-.46.59l-13-9.92c4.24,13.25,5.61,24.13,6.12,37.57a281.21,281.21,0,0,1-1,37.28c-.26,2.82-.59,5.63-.91,8.45-.65,5.53.54-3.27-.3,2.21-.18,1.11-.34,2.23-.52,3.34q-1.59,10-3.89,19.92A334.85,334.85,0,0,1,907.43,479c-.94,2.67-1.91,5.33-2.93,8-.61,1.58-1.26,3.15-1.87,4.74-2,5.23,1.53-3.41-.71,1.73-2.49,5.69-5.14,11.32-7.82,16.92a282.77,282.77,0,0,1-18.76,33.19c-.78,1.18-1.62,2.33-2.36,3.53-2.47,4,2.53-2.44-.82,1.09a53.89,53.89,0,0,1-5.54,5.46c3.28-2.61-.67.31-1.16.65-.78.53-1.58,1-2.35,1.54l1.67-.61q-2.81.72.6.15a11.85,11.85,0,0,1-2.59-.19q2.85.6.24-.05l2.25,1.58c2.31,2.11,2.85,2.24,1.6.4-.08,2.07-.31-1.45-.47-2-1.13-3.62-.1,1.76-.36-2-.07-.93-.12-1.87-.15-2.81a84.17,84.17,0,0,1,1.52-19.46,109.7,109.7,0,0,1,6.06-20.43c2.49-6,5.36-11,9.19-14.8.69-.71,1.42-1.39,2.18-2-1.47,1.25,2.47-1.58,3-1.86-2.2,1.06.68,0,1.21-.21,1.12-.25.94-.21-.53.11q-2.85-.54-.33.07l-1.27-.56q2.13,1.35.06-.26c.94.78,2.21,3.09.85.63,1.82,3.3-.53-2.9.22.65a6.33,6.33,0,0,1-.16-3.73q1.32-2.85-.11-.64c-4.89,6.69-1.13,17.1,5.5,21,7.52,4.4,16.35,1.4,21-5.5Z" transform="translate(-84.96 -91.63)" fill="#51e6fe"/><path d="M948,509.38a44.29,44.29,0,0,1-3.45,6.12c-2.69,3.69-2.32,9.81,0,13.54,13,21,37.39,1.09,48.88-10.67a117.33,117.33,0,0,0,15.79-20.21c5-8,10.87-18,8.43-27.76-3.24-13-17.43-18.75-29.1-12.48-7.25,3.89-13.23,11.62-17.92,18.19-9.07,12.71-13.18,28.1-15.24,43.36a129.88,129.88,0,0,0-1.25,23.23A92.57,92.57,0,0,0,956,557.54c-.07-.33-.24-1.84.08,0s.31,3.59.71,5.32a37.65,37.65,0,0,0,3.71,9c5.81,10.62,16.93,18.14,29.14,18.37,10.45.2,19.92-4.17,28.1-10.31a156,156,0,0,0,20.52-17.9,148.3,148.3,0,0,0,9.58-11.78c1.13-1.49,2.33-3,3.33-4.54,1.28-2,2.65-3.92,3-6.44.32-2.2-.17-1.13-.63.39,1-3.42,3.44-6.92,4.86-10.24,2-4.62,4.24-9.3,5.17-14.28,1.31-7,1.15-14.45-4.4-19.66s-13.52-5.55-20-1.77c-5,2.95-8.45,9.13-11.54,14q-1.74,2.71-3.6,5.36c-.63.88-1.29,1.74-1.91,2.63,1.39-2,1.37-.63.13-.18.77-.28,3.29-2.34.59-.33a32.8,32.8,0,0,0-5.31,4.58l-1.68,2.17q-3.2,4.14-.3.37c0,.59-1.65,2-2,2.49-2.76,3.29-5.66,6.49-8.65,9.57a128.5,128.5,0,0,1-9.42,8.8,17.78,17.78,0,0,1-2.48,2c2.34-1.21,1.93-1.41-.17.08a50.69,50.69,0,0,1-5.6,3.41,17,17,0,0,1-2.16,1.1l2.11-.94q-2.88.67-.31.24c3.52-.91-.62.13-.39-.21l-1.45,0a6.18,6.18,0,0,1,3.33.85c1.84.25.46.22-.39-.25-3.25-1.82.66,1.27-.42-.32-1.26-1.86-3.11-3.51-4.51-5.3l4.09,7c-2.26-6.55-2.61-12.46-2.61-20.35,0-3.52.22-7,.47-10.51.2-1.8.21-2,0-.53.12-.75.25-1.48.39-2.22.32-1.72.69-3.42,1.1-5.12,1.86-7.55,3.16-11,6.63-16.91a31.39,31.39,0,0,1,4.52-6.43,34.9,34.9,0,0,1,3-3.16q-1.56,1.14.49-.28a10,10,0,0,1-8-.47l-5.57-5.57q.17-11.7-.79-7a7.78,7.78,0,0,1-.33,1.26c-.69,1.2.93-1.68-.42.94-1.22,2.38-2.41,4.77-3.77,7.08s-2.81,4.56-4.35,6.75c0,0-2.91,3.81-1.41,1.95-.84,1-1.71,2.06-2.59,3.07a99.55,99.55,0,0,1-11.52,11.16c-2.23,1.84,2.83-1.93-1.3,1-1.09.78-2.2,1.54-3.28,2.33-.9.67-1.84,1.3-2.75,2l1.23-.49q-2.48,1,.58,0l6.94,1.88-1-.48L969,525.83a43.33,43.33,0,0,1,2.32-6.59c2.32-5.84-2.06-12.94-7.41-15.09-5.6-2.26-13-.54-16,5.23Z" transform="translate(-84.96 -91.63)" fill="#51e6fe"/><path d="M1070.83,560.57l-.68-2.94,2.92-5-.87,1.11,19.9,8.25c.74-6.43-.13-12.89.37-19.34q0-1.53.15,0a30.67,30.67,0,0,0,.59-5.4c.11-1.56.17-3.11.29-4.66s.27-3.11.44-4.65c0-.53.66-4.85.25-2.17a167.86,167.86,0,0,1,10-36.62c.2-.51,1.84-4.57,1.21-3.06s1.12-2.49,1.34-3q2.12-4.57,4.51-9a164.44,164.44,0,0,1,9.81-15.85c1.77-2.55,3.51-5.12,5.34-7.62.47-.63,2.94-3.75,1.11-1.48,1-1.22,2-2.42,3-3.61,2-2.38,4.19-4.6,6.26-6.92,5.37-6,6.32-11,5-18.69-.75-4.53-5.42-8.68-9.72-9.72-7.61-1.84-13.13-.22-18.83,4.89-2.69,2.41-5.2,5.08-7.64,7.74a145.91,145.91,0,0,0-14.33,18,168.69,168.69,0,0,0-19,39.53,172.47,172.47,0,0,0-7.92,43q-.35,5.41-.3,10.85c0,1.55,0,3.12.1,4.66a15.28,15.28,0,0,0,.73,4.57c.24.93.28,1,.11.09,1.77,8.57,1.78,16.29,5.39,24.44,4.24,9.58,18.8,6.11,21.31-2.78,1.57-5.56,1.24-10.66-1.67-15.71a11.29,11.29,0,0,0-15.2-4c-5.58,3.27-6.52,9.74-4,15.2Z" transform="translate(-84.96 -91.63)" fill="#51e6fe"/><path d="M424.44,814.29l6.32,7.45,3.81-29.59-.47.27,9.07-2.46-1.79-.11,1.52.4a7.27,7.27,0,0,0-1.86-.62,11.5,11.5,0,0,0-6-.27c.43-.06-5.4.84-2.33.34,2.54-.41-.95.06-1.43.1-4.9.41-10.91,4.34-10.14,10.13.32,2.4.62,4.79,1.08,7.16.79,4,3.28,7.3,6.23,10l-4.08-7a32.33,32.33,0,0,0,3.32,6.91l-2.45-9.07,0,.48c.56,6.78,3.23,12.7,9.33,16.27a19.1,19.1,0,0,0,27.68-11.26c1.86-6.76-.29-13.26-4.85-18.33l-6.51-7.26c-6.55-7.31-19.87-7.17-26.45,0-3.27,3.56-5.7,8.24-5.48,13.22a21,21,0,0,0,5.48,13.23Z" transform="translate(-84.96 -91.63)" fill="#51e6fe"/><path d="M545.44,744.21c2.19,2.06,0-.65-.45-1.34.33,1.47.38,1.63.17.47s-.2-1-.12.57c-.32,4.52.58-3.33-.06,1.21l-.57,4.3q.47-3,0-.18-2,10.71-4.1,21.43c-3,15.68-8.65,33.23-5.72,49.19,2.28,12.4,19.49,12.67,25.4,3.32,5-8,6.62-18.48,8.38-27.62l5-25.87c1.52-7.9,4-16.35,3.09-24.43-1.1-9.56-4.92-18.56-13.8-23.35-13.79-7.45-29.34,10.89-17.21,22.3Z" transform="translate(-84.96 -91.63)" fill="#51e6fe"/><path d="M537.88,637c2.47,5,4.59,9.86,8.23,14.07,4.68,5.41,14.54,6.47,20.48,2.65a20.28,20.28,0,0,0,6.06-6.07c2.55-3.95,2.44-8.61,1.7-13-.5-3-2.44-6.34-3.72-9.24l-2.64-6c-1.64-3.73-6.67-7-10.42-8-4.17-1.15-9.73-.63-13.43,1.76-8.37,5.39-10.63,15.11-6.26,23.85Z" transform="translate(-84.96 -91.63)" fill="#51e6fe"/><path d="M703.8,784.52c11.32-12.2,13.57-28.59,11.49-44.55-2-15.54-7.85-33.25-19.93-43.93s-28.15-10.5-41.13-1.1c-12.58,9.11-19.36,23.37-24.54,37.63a209.2,209.2,0,0,0-11,49.17,205.7,205.7,0,0,0-.92,25.44c.13,7.72.83,15.41,3.91,22.55,8.62,20,31.62,20.67,49,12.53,13.59-6.37,23.43-20,30.69-32.69,9.3-16.22,16.93-34.2,16.9-53.19a54.36,54.36,0,0,0-1.62-14.59c-1.17-4-3.63-8.29-5.65-12-4.19-7.72-12.05-16-21.6-15.27-3.19.25-6.61,2.16-7.33,5.57-1.28,6.12-.38,10.28.72,15.89.29,1.5.74,3,1,4.47-.17-1-.74-1.76,0,.52l.1,1.51q.52-4.34-.43,3c-.06,1.56.1,3.08.17,4.64a67.3,67.3,0,0,1-.15,7.78c-.21,3.33-.1.88,0,.16-.28,1.71-.64,3.4-1,5.09-.65,2.81-1.36,5.62-2.23,8.37-.35,1.1-.72,2.2-1.11,3.29s-.8,2.18-1.22,3.26c-.72,1.79-.87,2.16-.46,1.11.95-2.14-1.45,3.06-1.27,2.67-.62,1.32-1.28,2.62-1.94,3.91-1.27,2.48-2.59,4.93-4,7.34-1.26,2.18-2.57,4.33-4,6.43-.7,1.05-1.43,2.09-2.16,3.12-2.81,3.94,2.23-2.36-1,1.21-1.67,1.85-3.32,3.68-5.17,5.36q-1.63,1.47-3.39,2.79c.57-.43,2.73-1.78,0-.12-1,.63-2,1.29-3.08,1.86-.86.46-3.68,1.33-.6.36a32.79,32.79,0,0,1-3.64,1c-1.14.25-1.1.24.13,0-2,0-2.25,0-.72-.07.45.37,1.43.85,2,1.22-3-2.06,1.17,1.91-.94-1.12-1.38-2-.64-1.08-.29-.27a28.51,28.51,0,0,1-1.3-4A78.09,78.09,0,0,1,643.59,794a171.68,171.68,0,0,1,2.34-37.34c2-11.81,4.43-24,10.44-34.55,3-5.23,10.63-16,17.6-13.75,3.47,1.11,6.39,9.21,8.19,12.63a60.51,60.51,0,0,1,5.57,16,44,44,0,0,1,1,8.2c.07,1.54.11,3.12,0,4.67,0,.44-.61,4.41-.23,2.29-.22,1.22-.5,2.43-.83,3.63-.16.58-1.81,4.65-.89,2.8-.43.87-.93,1.7-1.42,2.53l-.35.52a21.38,21.38,0,0,1-2.11,2c-5.89,5.38-5.45,15.43,0,20.89s15.44,5.86,20.88,0Z" transform="translate(-84.96 -91.63)" fill="#51e6fe"/></svg>